<svg width="76" height="88" viewBox="0 0 76 88" fill="none" xmlns="http://www.w3.org/2000/svg">
<g clip-path="url(#clip0_103_468)">
<path d="M62.1821 13.9106L38.4081 0L15.4175 13.4565V13.3933L12.7369 14.9738L2.70234 20.5626L0.770162 21.7223L0.748047 65.9094L38.4372 88L63.1959 73.5149L63.2645 73.5614L75.7492 66.1776V21.6293L62.1821 13.9106ZM38.4372 75.7473L54.2904 66.4696L59.7645 70.8379L38.4372 83.3123L15.2417 69.7437L15.2487 35.3147L21.7331 40.4923V65.969L38.4372 75.7473ZM25.7046 63.6102V43.6579L50.9044 63.7735L38.4372 71.0596L25.7046 63.6102ZM63.5392 68.6973L11.2773 26.9952L11.2551 67.4124L4.71949 63.559L4.74161 24.0584L12.4738 19.4875L65.3632 61.6818V20.199L71.7754 23.9845V63.8284L63.5392 68.6973ZM25.7046 24.3135L38.5687 16.789L61.3929 30.149V53.3635L25.7046 24.8915V24.3135ZM16.4685 17.5185L38.4081 4.68653L61.3929 18.1359V25.4613L38.5687 12.1025L21.9031 21.8558L16.4685 17.5185Z" fill="#6E58EB"/>
</g>
<defs>
<clipPath id="clip0_103_468">
<rect width="75" height="88" fill="white" transform="translate(0.748047)"/>
</clipPath>
</defs>
</svg>
